<?xml version="1.0" standalone="no"?>
<!DOCTYPE svg PUBLIC "-//W3C//DTD SVG 20010904//EN"
 "http://www.w3.org/TR/2001/REC-SVG-20010904/DTD/svg10.dtd">
<svg version="1.0" xmlns="http://www.w3.org/2000/svg"
 width="512.000000pt" height="512.000000pt" viewBox="0 0 512.000000 512.000000"
 preserveAspectRatio="xMidYMid meet">
<metadata>
Created by potrace 1.11, written by Peter Selinger 2001-2013
</metadata>
<g transform="translate(0.000000,512.000000) scale(0.100000,-0.100000)"
fill="#000000" stroke="none">
<path d="M1760 5093 c5 -16 10 -35 13 -43 3 -11 8 -7 17 13 17 35 26 34 39 -4
6 -17 15 -28 20 -25 5 4 13 1 16 -5 11 -16 -3 -23 -20 -9 -12 10 -16 8 -24
-13 -8 -19 -15 -23 -34 -20 -19 4 -28 -1 -37 -17 -9 -16 -14 -19 -25 -10 -10
8 -15 8 -21 -1 -4 -7 0 -17 9 -24 22 -16 22 -35 -1 -35 -11 0 -25 16 -37 44
-11 24 -23 42 -28 39 -4 -2 -6 -28 -5 -56 3 -67 -21 -107 -63 -107 -28 0 -38
-13 -19 -25 15 -9 0 -35 -20 -35 -10 0 -21 6 -23 13 -4 7 -6 6 -6 -4 -1 -9 -8
-19 -16 -23 -8 -3 -15 -11 -15 -18 -1 -17 -35 -58 -49 -58 -6 0 -11 -6 -11
-14 0 -8 -7 -16 -15 -20 -22 -8 -18 -26 5 -26 11 0 20 -4 20 -10 0 -5 6 -10
14 -10 9 0 12 -7 9 -20 -3 -11 -9 -20 -14 -20 -5 0 -9 9 -9 20 0 11 -4 20 -10
20 -5 0 -10 -9 -10 -21 0 -12 -5 -19 -12 -16 -7 2 -21 -2 -30 -11 -16 -14 -18
-13 -18 2 0 11 -5 15 -12 12 -7 -3 -21 -9 -30 -12 -10 -4 -18 -14 -18 -23 0
-9 -6 -27 -13 -41 -10 -21 -10 -28 2 -42 21 -25 25 -23 71 22 22 22 45 40 50
40 6 0 10 7 10 15 0 9 9 15 23 15 38 1 58 23 51 59 -6 27 -4 31 14 31 12 0 24
-4 27 -10 13 -22 25 -8 20 25 -5 45 11 55 19 11 5 -28 10 -33 26 -29 16 4 18
8 9 19 -17 21 6 18 27 -3 17 -17 18 -17 11 0 -9 23 2 45 13 27 11 -19 40 -4
40 20 0 12 7 20 16 20 12 0 15 -6 11 -22 -5 -18 0 -26 20 -36 30 -13 60 1 35
17 -11 7 -11 9 2 14 8 3 18 2 21 -3 3 -5 12 -7 19 -4 8 3 17 1 21 -5 3 -6 1
-11 -4 -11 -6 0 -11 -7 -11 -15 0 -20 28 -19 32 2 2 13 7 12 28 -9 18 -19 29
-24 45 -18 21 7 46 3 55 -11 3 -4 23 -10 45 -14 33 -6 38 -5 28 6 -7 7 -13 17
-13 21 0 11 28 10 32 -1 2 -5 16 -11 33 -13 36 -4 49 26 14 35 -13 4 -18 10
-13 18 5 9 1 10 -16 6 -17 -4 -20 -3 -12 5 15 15 81 -19 92 -47 6 -17 8 -16
14 12 4 17 14 34 22 37 8 3 14 15 14 28 0 21 1 21 14 3 8 -11 20 -16 29 -12
10 4 16 2 14 -5 -3 -14 49 -41 63 -33 6 3 10 18 10 32 0 21 2 24 15 13 8 -7
15 -21 15 -31 0 -12 6 -18 18 -16 28 4 42 17 42 37 0 13 5 17 15 14 8 -4 15
-15 15 -26 0 -10 5 -16 10 -13 16 10 12 -11 -5 -25 -13 -11 -14 -10 -9 4 7 19
-12 22 -30 3 -20 -20 10 -44 35 -29 25 16 29 15 30 -5 0 -15 2 -15 8 2 5 11 6
25 3 30 -3 6 2 4 11 -4 9 -7 17 -20 17 -27 0 -8 7 -14 15 -14 10 0 15 -10 15
-29 0 -25 4 -29 23 -28 12 1 27 8 34 17 10 12 15 13 33 2 11 -7 25 -10 30 -7
6 4 10 -1 10 -9 0 -11 10 -16 30 -16 19 0 33 -6 37 -16 3 -8 12 -13 19 -10 7
3 16 1 19 -4 11 -18 34 -10 38 13 l4 22 2 -22 c1 -23 11 -29 25 -16 4 4 36 6
72 4 53 -2 64 0 64 13 0 9 6 17 13 17 6 1 18 2 26 3 17 1 28 26 12 26 -6 0
-11 7 -11 15 0 18 27 20 32 3 5 -15 28 -1 28 17 0 10 -6 12 -17 8 -16 -6 -16
-5 -5 10 11 13 18 14 39 4 21 -9 27 -8 40 8 15 19 15 19 10 -8 -3 -22 -1 -27
10 -23 8 3 17 6 19 6 2 0 4 9 4 20 0 11 7 20 15 20 13 0 14 -4 5 -20 -9 -17
-8 -20 9 -20 11 0 21 3 24 8 2 4 2 2 1 -5 -4 -16 13 -26 21 -13 10 16 38 12
31 -5 -5 -15 10 -20 43 -15 7 1 27 -13 44 -30 17 -17 50 -43 74 -57 42 -24
223 -196 223 -211 0 -4 22 -32 49 -62 27 -30 47 -58 45 -62 -3 -4 -1 -8 5 -8
6 0 8 -6 5 -14 -3 -7 9 -29 25 -47 17 -18 31 -40 31 -49 0 -15 48 -77 53 -69
22 37 24 47 15 65 -6 10 2 6 17 -11 27 -29 27 -29 20 -5 -7 22 -6 23 9 11 26
-22 45 -72 48 -123 2 -27 6 -48 9 -48 4 0 9 -13 12 -29 4 -19 16 -34 34 -43
15 -7 28 -18 28 -23 1 -6 6 -20 13 -32 11 -19 10 -22 -3 -17 -9 4 -19 19 -22
35 -3 16 -12 29 -19 29 -20 0 -17 -47 3 -54 15 -6 15 -8 3 -16 -8 -5 -11 -13
-6 -17 5 -4 11 -2 13 5 8 21 25 13 18 -9 -6 -18 -4 -20 17 -15 12 3 17 3 11 0
-7 -3 -13 -14 -13 -25 0 -10 -7 -19 -15 -19 -19 0 -20 -16 -1 -23 7 -3 16 -14
18 -25 4 -15 1 -18 -13 -15 -21 6 -26 -12 -6 -20 9 -4 8 -8 -3 -16 -8 -6 -10
-11 -5 -11 11 0 36 -52 56 -119 10 -35 11 -45 1 -49 -15 -5 -16 -105 -2 -132
6 -10 6 -21 2 -24 -11 -7 -14 -79 -3 -86 4 -3 11 -23 15 -45 7 -37 6 -39 -8
-20 -14 18 -15 19 -16 2 0 -10 5 -27 10 -38 15 -26 -6 -26 -22 1 -7 11 -16 20
-20 20 -12 0 -9 -35 4 -48 10 -9 9 -16 -4 -28 -11 -11 -14 -28 -10 -60 4 -40
3 -44 -17 -44 -12 0 -21 6 -21 15 0 8 -5 15 -11 15 -6 0 -9 -7 -5 -15 3 -8 0
-20 -7 -28 -21 -23 -37 -56 -37 -77 0 -16 -7 -20 -36 -20 -23 0 -33 -4 -28
-11 3 -6 6 -31 6 -55 -1 -42 10 -59 21 -30 6 16 56 18 75 4 6 -6 12 -7 12 -3
0 4 7 2 15 -5 8 -6 24 -9 37 -5 13 3 18 3 11 -2 -6 -4 -14 -26 -18 -48 l-6
-40 16 28 c9 15 21 27 27 27 6 0 8 11 5 30 -5 23 -3 30 9 30 9 0 18 -9 21 -20
5 -20 23 -28 23 -10 0 6 7 10 15 10 8 0 15 7 15 15 0 8 -7 15 -15 15 -8 0 -15
4 -15 10 0 5 6 7 14 4 22 -9 58 33 50 58 -4 14 -2 18 5 14 7 -4 11 1 11 12 0
37 99 38 149 3 67 -48 129 -167 139 -268 11 -107 -19 -394 -48 -458 -5 -11
-21 -64 -35 -118 -25 -93 -72 -196 -152 -332 -77 -130 -151 -156 -254 -88 -38
25 -44 36 -40 79 1 12 -5 24 -14 28 -8 3 -15 13 -16 23 -1 29 -29 -76 -39
-147 -5 -36 -18 -145 -29 -242 -11 -98 -22 -186 -26 -197 -13 -43 -32 -172
-25 -176 5 -3 11 2 14 11 5 13 9 14 21 4 8 -7 15 -9 15 -5 0 4 7 2 15 -5 8 -6
19 -9 26 -5 6 4 37 0 68 -8 133 -37 182 -48 192 -42 5 4 16 1 24 -5 8 -7 20
-10 27 -7 12 4 131 -25 168 -40 8 -3 18 -7 22 -7 15 -2 20 -16 10 -29 -9 -11
-6 -17 13 -27 28 -15 33 -30 10 -30 -8 0 -15 -9 -15 -20 0 -11 -3 -20 -7 -20
-13 0 -32 50 -26 66 3 9 -2 14 -16 14 -12 0 -21 -6 -21 -14 0 -15 -53 -27 -71
-15 -6 4 -8 12 -5 18 5 7 -1 11 -14 11 -11 0 -29 5 -39 12 -14 9 -23 8 -42 -5
-13 -10 -18 -17 -11 -17 24 0 11 -19 -18 -25 -16 -4 -30 -13 -30 -21 0 -8 -4
-14 -8 -14 -16 0 -21 12 -13 34 10 27 4 46 -14 40 -8 -3 -11 -12 -8 -20 3 -8
0 -14 -6 -14 -6 0 -11 6 -11 13 -1 7 -6 5 -14 -6 -20 -26 -46 -11 -47 27 -2
29 -2 30 -6 4 -3 -22 -12 -30 -41 -38 -20 -5 -42 -10 -49 -10 -18 0 -4 28 15
32 10 2 -18 4 -60 4 -44 1 -84 6 -92 13 -8 7 -17 8 -20 3 -3 -6 5 -13 19 -16
14 -4 25 -11 25 -16 0 -14 -34 -12 -48 2 -9 9 -12 9 -12 0 0 -7 -20 -43 -45
-80 l-45 -67 -10 -210 c-6 -116 -15 -232 -20 -258 -6 -26 -10 -52 -10 -57 0
-6 27 -10 61 -10 l61 0 -7 83 c-13 174 -15 286 -3 293 8 5 5 10 -8 15 -18 6
-17 8 6 17 17 6 29 6 38 0 8 -7 17 -7 26 1 10 8 16 9 21 2 6 -11 156 -7 175 4
6 4 17 1 25 -5 12 -10 18 -10 31 1 14 11 18 10 30 -6 8 -10 14 -24 14 -31 0
-7 21 -15 50 -19 57 -8 82 -34 59 -61 -10 -13 -10 -17 1 -24 7 -4 11 -17 7
-29 -4 -18 -2 -20 21 -15 50 11 54 13 47 34 -3 10 -2 28 4 38 14 26 62 26 68
1 7 -24 22 -24 39 -1 13 16 14 16 20 -5 8 -29 20 -29 29 0 4 13 8 17 12 10 2
-7 10 -13 17 -13 17 0 37 -58 22 -64 -16 -7 30 -7 47 0 12 4 13 12 6 37 -13
45 -13 45 34 37 23 -4 51 -7 62 -7 49 2 75 -4 75 -16 0 -8 -14 -12 -40 -12
-22 0 -46 -7 -55 -16 -13 -13 -13 -17 1 -38 15 -21 18 -22 26 -7 12 21 28 11
28 -16 0 -15 -5 -19 -20 -15 -28 7 -38 -30 -13 -48 24 -19 33 -18 33 1 0 14 1
14 16 0 8 -9 20 -16 26 -16 7 0 2 -10 -10 -23 -13 -14 -20 -34 -20 -55 l1 -32
119 0 c125 0 124 0 111 49 -6 23 -7 23 -13 6 -4 -11 -6 5 -5 35 2 30 4 57 5
60 1 3 1 10 0 15 -1 6 -4 46 -5 90 -2 44 -5 80 -6 80 -1 0 -3 12 -4 27 -3 22
1 27 23 31 l27 4 -27 2 c-18 0 -28 7 -28 16 0 8 5 15 10 15 6 0 10 7 10 15 0
8 -4 15 -10 15 -5 0 -10 -7 -10 -15 0 -8 -9 -15 -21 -15 -11 0 -18 4 -14 10 9
15 -6 60 -20 60 -21 0 -29 21 -14 32 10 7 7 7 -8 3 -13 -3 -23 -2 -23 3 0 6
-10 8 -22 5 -21 -4 -21 -3 -6 9 15 13 15 15 0 24 -14 9 -13 11 6 16 17 5 22 2
22 -12 0 -10 9 -20 19 -23 23 -6 31 0 31 21 0 8 7 20 17 27 11 8 13 14 5 19
-7 4 -12 3 -12 -3 0 -6 -8 -7 -17 -4 -12 5 -15 2 -11 -9 4 -8 2 -21 -3 -29 -6
-10 -9 -7 -9 14 0 28 -17 36 -38 15 -17 -17 -27 -2 -12 17 7 9 10 19 6 22 -4
4 -12 1 -17 -7 -8 -12 -9 -12 -7 4 2 10 -2 21 -9 23 -7 3 -13 -8 -15 -26 -4
-35 -23 -30 -32 9 -8 32 8 60 25 43 7 -7 24 -9 40 -6 16 3 29 1 29 -4 0 -6 12
-8 27 -5 18 3 30 -1 40 -13 9 -13 16 -16 24 -8 7 7 26 7 57 1 26 -5 58 -11 72
-12 14 -2 37 -6 53 -11 l27 -7 0 2246 0 2246 -1174 0 c-809 0 -1177 -3 -1181
-10 -5 -8 -11 -8 -19 -1 -19 16 -883 15 -889 -1 -4 -10 -6 -10 -6 0 -1 8 -18
12 -50 12 -50 0 -50 0 -41 -27z m97 -25 c-3 -8 -6 -5 -6 6 -1 11 2 17 5 13 3
-3 4 -12 1 -19z m-240 -395 c-3 -3 -11 -2 -17 2 -9 6 -9 10 1 16 14 8 27 -7
16 -18z m1523 -33 c0 -5 -2 -10 -4 -10 -3 0 -8 5 -11 10 -3 6 -1 10 4 10 6 0
11 -4 11 -10z m-525 -70 c3 -5 1 -10 -4 -10 -6 0 -11 5 -11 10 0 6 2 10 4 10
3 0 8 -4 11 -10z m-1305 -130 c0 -5 -5 -10 -11 -10 -5 0 -7 5 -4 10 3 6 8 10
11 10 2 0 4 -4 4 -10z m2530 -280 c0 -5 -2 -10 -4 -10 -3 0 -8 5 -11 10 -3 6
-1 10 4 10 6 0 11 -4 11 -10z m50 -10 c0 -5 -4 -10 -10 -10 -5 0 -10 5 -10 10
0 6 5 10 10 10 6 0 10 -4 10 -10z m-35 -30 c3 -5 1 -10 -4 -10 -6 0 -11 5 -11
10 0 6 2 10 4 10 3 0 8 -4 11 -10z m35 -35 c0 -8 -4 -15 -10 -15 -5 0 -10 7
-10 15 0 8 5 15 10 15 6 0 10 -7 10 -15z m30 -35 c0 -5 -4 -10 -9 -10 -6 0
-13 5 -16 10 -3 6 1 10 9 10 9 0 16 -4 16 -10z m40 -12 c0 -13 -23 -5 -28 10
-2 7 2 10 12 6 9 -3 16 -11 16 -16z m-50 -28 c0 -5 -2 -10 -4 -10 -3 0 -8 5
-11 10 -3 6 -1 10 4 10 6 0 11 -4 11 -10z m240 -541 c0 -6 -4 -7 -10 -4 -5 3
-10 11 -10 16 0 6 5 7 10 4 6 -3 10 -11 10 -16z m100 -79 c0 -5 -5 -10 -11
-10 -5 0 -7 5 -4 10 3 6 8 10 11 10 2 0 4 -4 4 -10z m-121 -507 c-1 -37 -3
-42 -8 -23 -7 24 -3 70 5 70 2 0 4 -21 3 -47z m-14 -210 c1 -28 -2 -33 -22
-33 -16 0 -23 6 -23 19 0 11 -5 21 -11 23 -7 2 -2 15 12 30 21 24 25 25 34 10
5 -9 10 -32 10 -49z m-95 -1103 c0 -5 -4 -10 -10 -10 -5 0 -10 5 -10 10 0 6 5
10 10 10 6 0 10 -4 10 -10z m570 -850 c17 -10 16 -12 -27 -27 -36 -12 -52 3
-24 24 19 15 31 16 51 3z m107 -34 c1 -16 7 -33 14 -36 6 -4 8 -13 5 -19 -10
-15 -26 -14 -26 3 0 14 -48 32 -58 21 -3 -3 2 -5 11 -5 19 0 23 -15 6 -25 -6
-4 -17 1 -24 11 -13 17 -16 17 -25 4 -8 -12 -10 -11 -10 8 0 12 6 22 14 22 7
0 21 12 30 26 24 35 60 30 63 -10z m-397 -7 c0 -17 -3 -19 -13 -11 -10 9 -17
6 -27 -8 -8 -11 -19 -20 -24 -20 -5 0 -1 9 8 19 10 11 15 25 11 30 -4 7 4 11
19 11 20 0 26 -5 26 -21z m-233 -41 c-3 -8 -6 -5 -6 6 -1 11 2 17 5 13 3 -3 4
-12 1 -19z m283 -9 c0 -6 -4 -7 -10 -4 -5 3 -10 11 -10 16 0 6 5 7 10 4 6 -3
10 -11 10 -16z m275 -19 c3 -5 -1 -10 -9 -10 -9 0 -16 5 -16 10 0 6 4 10 9 10
6 0 13 -4 16 -10z m118 -47 c-7 -2 -21 -2 -30 0 -10 3 -4 5 12 5 17 0 24 -2
18 -5z m87 -53 c0 -5 -4 -10 -9 -10 -6 0 -13 5 -16 10 -3 6 1 10 9 10 9 0 16
-4 16 -10z m-80 -35 c0 -8 -4 -15 -10 -15 -5 0 -10 7 -10 15 0 8 5 15 10 15 6
0 10 -7 10 -15z m113 4 c16 2 17 -1 8 -18 -11 -20 -12 -20 -31 -1 -22 22 -26
35 -7 23 6 -4 20 -6 30 -4z m-123 -223 c0 -3 -4 -8 -10 -11 -5 -3 -10 -1 -10
4 0 6 5 11 10 11 6 0 10 -2 10 -4z m20 -71 c0 -8 -4 -15 -10 -15 -5 0 -10 7
-10 15 0 8 5 15 10 15 6 0 10 -7 10 -15z m20 -35 c0 -5 -4 -10 -10 -10 -5 0
-10 5 -10 10 0 6 5 10 10 10 6 0 10 -4 10 -10z m7 -72 c-3 -8 -6 -5 -6 6 -1
11 2 17 5 13 3 -3 4 -12 1 -19z"/>
<path d="M1720 5055 c0 -8 9 -19 19 -24 17 -10 18 -9 7 14 -12 28 -26 33 -26
10z"/>
<path d="M1640 5020 c0 -5 5 -10 10 -10 6 0 10 5 10 10 0 6 -4 10 -10 10 -5 0
-10 -4 -10 -10z"/>
<path d="M1690 5010 c0 -5 5 -10 10 -10 6 0 10 5 10 10 0 6 -4 10 -10 10 -5 0
-10 -4 -10 -10z"/>
<path d="M2250 4640 c0 -5 5 -10 10 -10 6 0 10 5 10 10 0 6 -4 10 -10 10 -5 0
-10 -4 -10 -10z"/>
<path d="M2218 4623 c7 -3 16 -2 19 1 4 3 -2 6 -13 5 -11 0 -14 -3 -6 -6z"/>
<path d="M1860 4600 c0 -5 5 -10 11 -10 5 0 7 5 4 10 -3 6 -8 10 -11 10 -2 0
-4 -4 -4 -10z"/>
<path d="M1512 4570 c0 -19 2 -27 5 -17 2 9 2 25 0 35 -3 9 -5 1 -5 -18z"/>
<path d="M1358 4583 c6 -2 18 -2 25 0 6 3 1 5 -13 5 -14 0 -19 -2 -12 -5z"/>
<path d="M3138 4583 c7 -3 16 -2 19 1 4 3 -2 6 -13 5 -11 0 -14 -3 -6 -6z"/>
<path d="M2530 4570 c0 -5 5 -10 10 -10 6 0 10 5 10 10 0 6 -4 10 -10 10 -5 0
-10 -4 -10 -10z"/>
<path d="M1920 4560 c0 -5 5 -10 11 -10 5 0 7 5 4 10 -3 6 -8 10 -11 10 -2 0
-4 -4 -4 -10z"/>
<path d="M3110 4550 c0 -5 5 -10 10 -10 6 0 10 5 10 10 0 6 -4 10 -10 10 -5 0
-10 -4 -10 -10z"/>
<path d="M1232 4418 c4 -29 41 -32 46 -4 3 14 0 17 -12 13 -9 -4 -16 -2 -16 3
0 6 -5 10 -11 10 -6 0 -9 -10 -7 -22z"/>
<path d="M1136 4304 c-11 -8 -16 -14 -10 -14 13 0 39 18 34 24 -3 2 -14 -2
-24 -10z"/>
<path d="M1108 4263 c7 -3 16 -2 19 1 4 3 -2 6 -13 5 -11 0 -14 -3 -6 -6z"/>
<path d="M1055 4140 c3 -5 8 -10 11 -10 2 0 4 5 4 10 0 6 -5 10 -11 10 -5 0
-7 -4 -4 -10z"/>
<path d="M3937 3942 c1 -8 3 -20 3 -28 0 -21 17 -17 23 6 3 13 0 20 -8 20 -7
0 -15 3 -18 8 -2 4 -2 1 0 -6z"/>
<path d="M3992 3920 c0 -14 2 -19 5 -12 2 6 2 18 0 25 -3 6 -5 1 -5 -13z"/>
<path d="M3900 3920 c0 -5 5 -10 10 -10 6 0 10 5 10 10 0 6 -4 10 -10 10 -5 0
-10 -4 -10 -10z"/>
<path d="M806 3171 c-4 -7 -5 -15 -2 -18 9 -9 19 4 14 18 -4 11 -6 11 -12 0z"/>
<path d="M755 3090 c-3 -5 -2 -10 4 -10 5 0 13 5 16 10 3 6 2 10 -4 10 -5 0
-13 -4 -16 -10z"/>
<path d="M750 3055 c0 -8 4 -15 10 -15 5 0 7 7 4 15 -4 8 -8 15 -10 15 -2 0
-4 -7 -4 -15z"/>
<path d="M820 2991 c-7 -13 -7 -22 0 -26 15 -9 30 4 30 26 0 25 -16 25 -30 0z"/>
<path d="M770 2941 c0 -17 5 -33 10 -36 6 -4 10 8 10 29 0 20 -4 36 -10 36 -5
0 -10 -13 -10 -29z"/>
<path d="M3066 2928 c-11 -24 -59 -54 -64 -40 -5 17 -22 15 -22 -3 0 -14 -12
-19 -32 -16 -5 0 -8 -3 -8 -9 0 -5 -3 -10 -7 -9 -17 2 -53 -14 -53 -23 0 -9
14 -8 45 3 6 2 12 0 13 -6 2 -5 -11 -15 -29 -21 -18 -6 -35 -16 -37 -23 -2 -6
3 -9 12 -5 9 3 16 1 16 -5 0 -7 -13 -17 -29 -22 -28 -10 -29 -13 -25 -55 5
-41 3 -44 -18 -45 -17 -1 -18 -3 -5 -6 17 -4 23 -38 19 -102 -1 -23 -1 -23 20
-5 21 18 21 18 15 1 -4 -10 -7 -23 -7 -28 0 -5 -6 -9 -14 -9 -16 0 -19 -46 -5
-72 10 -18 39 -25 39 -9 0 5 -7 14 -15 21 -8 7 -15 17 -15 22 0 5 13 -4 30
-20 16 -16 45 -33 64 -36 21 -4 40 -15 47 -28 8 -14 14 -17 22 -9 7 7 14 5 23
-7 11 -16 13 -16 32 1 11 10 26 15 36 11 21 -8 21 -21 -1 -27 -17 -4 -17 -5
-1 -6 10 0 24 12 33 29 16 31 35 40 35 17 0 -8 12 -14 30 -14 18 0 30 6 30 14
0 7 7 13 15 13 13 0 15 11 13 54 -3 47 -5 53 -20 45 -19 -10 -44 -12 -35 -2 4
3 2 12 -5 20 -6 7 -8 17 -4 21 4 4 14 -1 21 -12 8 -11 21 -16 30 -13 21 8 19
27 -2 27 -16 1 -16 2 1 15 22 17 50 20 41 5 -3 -5 -2 -10 4 -10 5 0 13 5 16
10 3 6 20 10 36 10 17 0 28 4 24 9 -3 5 0 13 6 17 6 3 15 0 20 -7 7 -11 12
-12 28 -2 11 7 27 10 35 7 8 -3 17 0 21 6 5 8 17 2 36 -19 30 -33 49 -40 49
-17 0 7 6 18 13 24 10 8 16 6 25 -9 7 -11 17 -17 22 -14 15 9 12 25 -3 19 -9
-3 -18 9 -26 36 -8 27 -21 45 -37 52 -13 6 -24 17 -24 24 0 8 -6 11 -15 7 -10
-3 -15 -1 -13 8 2 7 -9 19 -24 26 -16 8 -28 18 -28 23 0 5 -8 9 -17 9 -30 0
-113 25 -113 33 0 5 -11 8 -24 8 -14 0 -27 4 -30 9 -3 4 -26 7 -51 6 -62 -2
-67 12 -8 20 27 3 59 8 73 11 70 15 319 15 410 0 52 -8 96 -13 98 -11 13 13
-18 23 -90 30 -46 4 -103 9 -128 12 -71 8 -260 3 -288 -8 -14 -5 -38 -7 -54
-4 -16 4 -40 1 -57 -8 -17 -8 -32 -12 -35 -9 -8 7 41 32 84 42 l35 8 -34 1
c-24 1 -32 5 -28 15 4 10 -5 12 -41 8 -26 -2 -51 -8 -56 -13 -15 -14 -24 -11
-29 9 -4 16 -4 16 -11 0z m-21 -99 c11 -16 1 -19 -13 -3 -7 8 -8 14 -3 14 5 0
13 -5 16 -11z m-31 -18 c3 -5 -5 -11 -19 -13 -28 -6 -35 8 -7 15 9 3 18 5 19
6 1 0 4 -3 7 -8z m-52 -53 c-9 -9 -12 -8 -12 5 0 9 -5 17 -11 17 -5 0 -7 5 -3
11 4 7 11 6 22 -5 13 -12 14 -18 4 -28z m568 -93 c10 -12 10 -15 -4 -15 -9 0
-16 7 -16 15 0 8 2 15 4 15 2 0 9 -7 16 -15z m-410 -35 c0 -5 -4 -10 -10 -10
-5 0 -10 5 -10 10 0 6 5 10 10 10 6 0 10 -4 10 -10z m110 -70 c0 -5 -7 -10
-15 -10 -8 0 -15 5 -15 10 0 6 7 10 15 10 8 0 15 -4 15 -10z"/>
<path d="M760 2855 c0 -14 2 -25 4 -25 2 0 6 11 8 25 3 14 1 25 -3 25 -5 0 -9
-11 -9 -25z"/>
<path d="M3883 2808 c20 -19 37 -40 37 -46 0 -6 5 -14 11 -18 18 -11 1 48 -19
67 -9 10 -28 20 -42 24 -22 6 -21 3 13 -27z"/>
<path d="M2037 2791 c-4 -16 3 -19 62 -24 175 -15 237 -37 267 -93 14 -25 16
-50 12 -141 -3 -60 -10 -118 -15 -129 -14 -26 -23 -114 -11 -114 5 0 18 21 29
48 18 40 21 68 21 187 0 94 -3 140 -11 143 -6 2 -11 9 -11 16 0 46 -171 114
-267 107 -19 -1 -33 2 -33 8 0 19 -37 12 -43 -8z"/>
<path d="M2825 2760 c-10 -11 -14 -20 -8 -20 5 0 18 9 28 20 10 11 14 20 8 20
-5 0 -18 -9 -28 -20z"/>
<path d="M1905 2736 c-11 -8 -26 -16 -33 -16 -7 0 -32 -8 -55 -19 -23 -10 -50
-21 -60 -24 -15 -6 -17 -17 -15 -72 l2 -65 97 0 c74 0 99 -4 109 -15 9 -11 16
-12 25 -5 9 8 14 6 19 -5 5 -13 10 -14 26 -5 12 6 35 10 51 8 18 -2 33 3 39
12 7 10 10 11 10 3 0 -7 7 -13 15 -13 8 0 15 5 15 10 0 6 6 10 13 8 21 -4 57
13 57 27 0 7 -11 23 -25 33 -29 23 -19 36 20 26 15 -4 25 -2 25 5 0 6 -4 11
-10 11 -14 0 -12 27 3 33 6 3 0 6 -15 6 -25 1 -42 21 -18 21 6 0 10 4 10 8 0
18 -73 34 -175 39 -90 4 -114 2 -130 -11z m276 -94 c-7 -2 -18 1 -23 6 -8 8
-4 9 13 5 13 -4 18 -8 10 -11z m-134 -28 c-3 -3 -12 -4 -19 -1 -8 3 -5 6 6 6
11 1 17 -2 13 -5z"/>
<path d="M812 2688 c3 -7 -4 -21 -14 -32 -20 -22 -26 -48 -6 -28 15 15 31 15
26 0 -6 -16 30 -56 66 -75 28 -14 30 -14 47 8 10 13 19 27 19 32 0 4 7 7 16 7
10 0 13 -6 10 -17 -3 -10 -2 -31 2 -48 8 -27 9 -24 15 30 4 41 2 62 -6 67 -20
13 -54 9 -67 -7 -12 -14 -15 -14 -30 3 -9 10 -20 24 -24 32 -3 8 -4 3 -1 -12
5 -24 2 -28 -16 -28 -18 0 -19 2 -9 15 11 13 11 20 0 40 -14 25 -35 35 -28 13z"/>
<path d="M2628 2694 c-3 -3 -20 -7 -38 -9 -65 -8 -41 -15 53 -15 67 0 97 -4
97 -12 0 -6 3 -9 6 -5 3 3 3 15 -1 26 -5 18 -14 21 -59 21 -29 0 -55 -3 -58
-6z"/>
<path d="M900 2654 c0 -17 14 -18 28 -1 8 10 6 13 -9 14 -10 1 -19 -5 -19 -13z"/>
<path d="M2765 2650 c-3 -5 -1 -10 4 -10 6 0 11 5 11 10 0 6 -2 10 -4 10 -3 0
-8 -4 -11 -10z"/>
<path d="M4335 2640 c-34 -13 -46 -34 -39 -69 4 -17 12 -31 19 -31 11 0 30
-32 54 -93 6 -15 15 -26 19 -23 4 2 9 -28 10 -67 3 -92 5 -104 35 -207 l24
-85 7 60 c5 33 14 74 20 90 7 17 11 35 9 41 -2 6 3 37 12 69 8 33 15 76 15 97
0 70 -40 188 -63 188 -5 0 -20 9 -34 20 -27 21 -54 24 -88 10z"/>
<path d="M2777 2613 c-4 -4 -5 -21 -1 -38 4 -24 2 -34 -10 -38 -20 -8 -21 -40
-2 -56 7 -6 13 -30 13 -52 0 -23 6 -44 12 -48 6 -4 14 -25 18 -47 6 -41 43
-101 43 -71 0 9 -4 19 -10 22 -5 3 -10 16 -10 28 0 17 2 19 10 7 22 -35 20 5
-4 79 -27 86 -49 198 -40 212 6 11 -10 12 -19 2z"/>
<path d="M2821 2594 c0 -11 3 -14 6 -6 3 7 2 16 -1 19 -3 4 -6 -2 -5 -13z"/>
<path d="M4045 2599 c-4 -6 -4 -13 0 -17 3 -3 10 0 15 8 8 13 10 12 10 -2 0
-10 5 -18 10 -18 14 0 13 13 -2 28 -15 15 -25 15 -33 1z"/>
<path d="M1617 2579 c-26 -29 -10 -45 19 -18 13 12 24 26 24 31 0 14 -24 7
-43 -13z"/>
<path d="M3940 2590 c0 -5 5 -10 10 -10 6 0 10 5 10 10 0 6 -4 10 -10 10 -5 0
-10 -4 -10 -10z"/>
<path d="M1005 2560 c-3 -5 -1 -10 4 -10 6 0 11 5 11 10 0 6 -2 10 -4 10 -3 0
-8 -4 -11 -10z"/>
<path d="M3594 2529 c1 -16 7 -31 15 -34 20 -8 26 2 11 21 -11 12 -11 17 -1
23 9 6 7 10 -7 13 -16 4 -19 0 -18 -23z"/>
<path d="M3320 2540 c-8 -5 -11 -12 -7 -17 5 -4 11 -3 15 3 4 6 14 14 22 17
13 5 13 5 0 6 -8 0 -22 -3 -30 -9z"/>
<path d="M3940 2540 c0 -5 5 -10 11 -10 5 0 7 5 4 10 -3 6 -8 10 -11 10 -2 0
-4 -4 -4 -10z"/>
<path d="M4040 2515 c0 -28 25 -61 35 -46 3 5 1 12 -5 16 -5 3 -10 15 -10 25
0 10 -4 22 -10 25 -6 4 -10 -5 -10 -20z"/>
<path d="M1565 2520 c-3 -5 -1 -10 4 -10 6 0 11 5 11 10 0 6 -2 10 -4 10 -3 0
-8 -4 -11 -10z"/>
<path d="M1133 2513 c-26 -10 -12 -25 17 -21 17 3 33 1 36 -4 10 -15 24 -8 24
12 0 16 -6 20 -32 19 -18 0 -39 -3 -45 -6z"/>
<path d="M3280 2509 c0 -5 5 -7 10 -4 6 3 10 8 10 11 0 2 -4 4 -10 4 -5 0 -10
-5 -10 -11z"/>
<path d="M1000 2495 c0 -8 5 -15 10 -15 6 0 10 7 10 15 0 8 -4 15 -10 15 -5 0
-10 -7 -10 -15z"/>
<path d="M1051 2494 c0 -11 3 -14 6 -6 3 7 2 16 -1 19 -3 4 -6 -2 -5 -13z"/>
<path d="M4096 2495 c-3 -8 -1 -15 4 -15 6 0 10 7 10 15 0 8 -2 15 -4 15 -2 0
-6 -7 -10 -15z"/>
<path d="M3310 2489 c0 -5 -4 -7 -10 -4 -5 3 -10 2 -10 -4 0 -5 9 -9 20 -8 20
1 29 27 10 27 -5 0 -10 -5 -10 -11z"/>
<path d="M4215 2490 c3 -5 8 -10 11 -10 2 0 4 5 4 10 0 6 -5 10 -11 10 -5 0
-7 -4 -4 -10z"/>
<path d="M664 2458 c-16 -12 -31 -23 -34 -26 -3 -2 -3 -60 -2 -129 3 -123 13
-179 31 -169 15 10 22 132 9 180 -10 40 -10 48 4 58 12 10 33 108 23 108 -1 0
-15 -10 -31 -22z"/>
<path d="M2755 2460 c-3 -5 -1 -10 4 -10 6 0 11 5 11 10 0 6 -2 10 -4 10 -3 0
-8 -4 -11 -10z"/>
<path d="M4211 2461 c-9 -6 -10 -11 -2 -15 14 -9 15 -36 1 -36 -5 0 -10 8 -10
17 0 9 -3 13 -7 9 -5 -4 -8 -21 -8 -37 0 -20 4 -28 13 -24 8 3 17 5 22 5 11 0
23 71 13 81 -4 4 -14 4 -22 0z"/>
<path d="M3287 2433 c-15 -14 -6 -30 17 -30 22 0 23 2 13 18 -13 20 -20 23
-30 12z"/>
<path d="M2316 2395 c-3 -8 -1 -15 4 -15 6 0 10 7 10 15 0 8 -2 15 -4 15 -2 0
-6 -7 -10 -15z"/>
<path d="M3388 2403 c12 -2 30 -2 40 0 9 3 -1 5 -23 4 -22 0 -30 -2 -17 -4z"/>
<path d="M3320 2385 c0 -5 5 -17 10 -25 5 -8 10 -10 10 -5 0 6 -5 17 -10 25
-5 8 -10 11 -10 5z"/>
<path d="M2950 2360 c0 -5 5 -10 10 -10 6 0 10 5 10 10 0 6 -4 10 -10 10 -5 0
-10 -4 -10 -10z"/>
<path d="M4137 2243 c-13 -12 -7 -84 9 -115 11 -20 16 -55 15 -105 -1 -62 2
-73 13 -64 10 9 13 5 12 -19 -1 -29 -7 -34 -35 -31 -7 2 -11 -4 -8 -11 2 -8
18 -12 37 -11 21 1 28 -2 20 -7 -14 -9 -4 -31 13 -29 7 1 20 -1 30 -6 10 -4
23 -2 31 4 7 6 16 8 19 4 4 -3 7 1 7 10 0 15 5 19 27 16 13 -1 21 36 16 74 -4
24 -2 37 6 37 7 0 9 21 7 63 -3 34 -5 64 -7 67 -1 3 -2 19 -3 35 -1 25 -6 31
-28 33 -16 2 -28 8 -28 14 0 5 -6 8 -14 5 -7 -3 -18 -1 -24 5 -6 6 -12 6 -16
0 -4 -7 -17 -1 -33 14 -25 23 -53 31 -66 17z m198 -183 c3 -5 1 -10 -4 -10 -6
0 -11 5 -11 10 0 6 2 10 4 10 3 0 8 -4 11 -10z m-45 -160 c0 -5 -4 -10 -10
-10 -5 0 -10 5 -10 10 0 6 5 10 10 10 6 0 10 -4 10 -10z"/>
<path d="M652 2100 c0 -14 2 -19 5 -12 2 6 2 18 0 25 -3 6 -5 1 -5 -13z"/>
<path d="M2950 2006 c0 -8 4 -17 9 -20 15 -9 44 -109 42 -143 -2 -38 -37 -103
-55 -103 -7 0 -19 -12 -26 -26 -12 -22 -12 -27 0 -34 8 -5 11 -13 6 -17 -5 -4
-11 -2 -13 5 -5 12 -33 17 -33 6 0 -4 8 -13 18 -20 16 -13 16 -13 0 -14 -20 0
-25 -30 -5 -30 7 0 19 6 26 13 11 10 14 10 18 0 3 -7 11 -13 19 -13 8 0 14 -7
14 -15 0 -11 5 -12 23 -6 12 5 21 14 19 20 -1 6 5 11 13 11 8 0 15 -4 15 -9 0
-13 53 -21 68 -9 8 7 12 7 12 -1 0 -16 -25 -41 -40 -41 -7 0 -7 -7 1 -22 8
-14 14 -18 17 -10 6 20 39 14 45 -9 3 -12 10 -18 16 -14 6 3 11 1 11 -5 0 -6
5 -8 10 -5 12 7 49 -33 50 -52 0 -7 7 -10 15 -7 8 4 15 2 15 -3 0 -4 12 -21
26 -37 15 -15 27 -39 27 -52 0 -28 3 -29 23 -9 9 9 12 23 8 38 -3 14 -1 28 5
31 25 16 9 76 -21 82 -5 1 -11 2 -15 3 -5 1 0 6 10 12 26 15 20 39 -14 52 -23
9 -30 17 -28 37 2 34 -28 100 -46 100 -9 0 -15 10 -15 25 0 28 -15 33 -24 9
-9 -23 -20 -10 -21 24 -5 110 -4 107 -20 86 -13 -17 -14 -15 -15 34 0 45 -3
54 -22 63 -49 22 -78 41 -78 50 0 5 -6 9 -14 9 -7 0 -19 7 -26 15 -16 19 -50
20 -50 1z m60 -312 c0 -11 6 -15 20 -11 24 6 27 -11 3 -20 -9 -4 -25 -15 -35
-25 -15 -15 -22 -16 -40 -7 -20 11 -20 12 11 27 23 11 31 20 28 34 -3 10 -1
18 4 18 5 0 9 -7 9 -16z m-45 -4 c3 -5 -1 -10 -10 -10 -9 0 -13 5 -10 10 3 6
8 10 10 10 2 0 7 -4 10 -10z m191 -11 c3 -6 2 -15 -4 -21 -6 -6 -11 -2 -15 11
-5 22 7 29 19 10z m39 -9 c-3 -5 -10 -10 -16 -10 -5 0 -9 5 -9 10 0 6 7 10 16
10 8 0 12 -4 9 -10z m-115 -30 c19 -19 27 -40 15 -40 -9 0 -45 40 -45 50 0 15
8 12 30 -10z m155 0 c-3 -5 -10 -10 -16 -10 -5 0 -9 5 -9 10 0 6 7 10 16 10 8
0 12 -4 9 -10z m-35 -75 c0 -8 -7 -15 -15 -15 -8 0 -15 7 -15 15 0 8 7 15 15
15 8 0 15 -7 15 -15z m100 -25 c0 -5 -4 -10 -10 -10 -5 0 -10 5 -10 10 0 6 5
10 10 10 6 0 10 -4 10 -10z m15 -24 c-11 -8 -24 -12 -29 -8 -5 3 -1 9 10 13
31 12 39 10 19 -5z m25 -76 c0 -5 -4 -10 -10 -10 -5 0 -10 5 -10 10 0 6 5 10
10 10 6 0 10 -4 10 -10z"/>
<path d="M4160 1839 c0 -5 5 -7 10 -4 6 3 10 8 10 11 0 2 -4 4 -10 4 -5 0 -10
-5 -10 -11z"/>
<path d="M4120 1801 c-5 -11 -6 -22 -2 -25 14 -8 65 9 70 24 3 9 -1 11 -11 7
-9 -3 -19 -2 -22 3 -10 16 -23 12 -35 -9z"/>
<path d="M2011 1730 c0 -40 2 -42 11 -22 8 16 8 28 0 45 -9 19 -11 17 -11 -23z"/>
<path d="M1966 1695 c-9 -14 -15 -29 -12 -34 3 -5 -3 -16 -14 -26 -11 -10 -20
-31 -20 -47 0 -15 -4 -28 -10 -28 -5 0 -10 -8 -10 -19 0 -12 -9 -20 -28 -24
-32 -6 -67 -57 -44 -64 17 -6 15 -23 -3 -23 -8 0 -15 -4 -15 -10 0 -20 23 -9
57 26 20 22 39 34 48 30 10 -3 15 1 15 14 0 10 5 22 11 25 6 4 8 13 5 21 -9
23 4 42 32 49 25 6 25 8 10 19 -16 12 -16 14 8 25 26 11 25 31 -2 31 -16 0
-18 12 -4 26 5 5 6 15 1 22 -6 10 -12 7 -25 -13z"/>
<path d="M2010 1670 c0 -5 4 -10 9 -10 6 0 13 5 16 10 3 6 -1 10 -9 10 -9 0
-16 -4 -16 -10z"/>
<path d="M4006 1665 c-3 -8 -1 -15 4 -15 6 0 10 7 10 15 0 8 -2 15 -4 15 -2 0
-6 -7 -10 -15z"/>
<path d="M2842 1633 c-1 -12 -5 -29 -9 -39 -4 -12 -3 -15 5 -10 7 4 12 1 12
-8 0 -21 -39 -21 -46 -1 -4 8 -10 15 -15 15 -6 0 -5 -9 1 -20 6 -12 7 -20 1
-20 -5 0 -12 -8 -14 -17 -4 -14 -5 -13 -6 4 -1 30 -21 40 -28 14 -3 -11 -13
-20 -22 -19 -9 1 -25 0 -36 -1 -19 -2 -18 -3 3 -11 19 -8 21 -14 16 -37 -4
-16 -14 -33 -23 -40 -14 -11 -14 -12 0 -13 8 0 20 5 27 12 8 8 15 8 26 -1 11
-10 23 -10 43 -3 15 6 22 11 16 11 -15 1 -18 61 -3 61 6 0 10 -8 10 -17 0 -10
9 -29 19 -42 l19 -24 7 31 c3 18 15 38 26 46 16 11 18 18 10 40 -6 14 -8 33
-5 41 4 11 2 13 -9 9 -12 -4 -17 3 -20 28 -2 18 -5 23 -5 11z"/>
<path d="M1901 1604 c0 -11 3 -14 6 -6 3 7 2 16 -1 19 -3 4 -6 -2 -5 -13z"/>
<path d="M2900 1585 c-12 -14 -11 -18 1 -26 23 -15 36 -10 34 13 -2 28 -18 33
-35 13z"/>
<path d="M2920 1530 c-12 -8 -10 -10 8 -10 13 0 20 4 17 10 -7 12 -6 12 -25 0z"/>
<path d="M2975 1530 c-3 -5 1 -10 9 -10 9 0 16 5 16 10 0 6 -4 10 -9 10 -6 0
-13 -4 -16 -10z"/>
<path d="M3050 1516 c0 -9 5 -16 10 -16 6 0 10 4 10 9 0 6 -4 13 -10 16 -5 3
-10 -1 -10 -9z"/>
<path d="M3010 1510 c0 -5 5 -10 10 -10 6 0 10 5 10 10 0 6 -4 10 -10 10 -5 0
-10 -4 -10 -10z"/>
<path d="M4070 1510 c0 -5 5 -10 10 -10 6 0 10 5 10 10 0 6 -4 10 -10 10 -5 0
-10 -4 -10 -10z"/>
<path d="M3370 1464 c0 -8 5 -12 10 -9 6 3 10 10 10 16 0 5 -4 9 -10 9 -5 0
-10 -7 -10 -16z"/>
<path d="M3372 1385 c0 -16 2 -22 5 -12 2 9 2 23 0 30 -3 6 -5 -1 -5 -18z"/>
<path d="M1795 1370 c3 -5 8 -10 11 -10 2 0 4 5 4 10 0 6 -5 10 -11 10 -5 0
-7 -4 -4 -10z"/>
<path d="M2840 1347 c0 -11 -10 -15 -32 -15 -18 1 -40 -2 -48 -5 -8 -3 -32 -8
-53 -12 -21 -3 -41 -13 -44 -21 -7 -19 -23 -18 -23 1 0 8 -4 15 -10 15 -5 0
-10 -5 -10 -11 0 -7 -11 -9 -28 -6 -35 7 -46 -1 -50 -34 -2 -22 3 -27 35 -35
28 -7 47 -6 71 4 19 7 42 10 53 7 11 -4 26 -1 34 5 8 7 15 8 15 3 0 -18 70
-33 96 -21 13 6 24 15 24 20 0 4 7 8 15 8 8 0 15 -4 15 -10 0 -5 -7 -10 -15
-10 -8 0 -15 -5 -15 -10 0 -15 31 -25 39 -13 9 16 74 31 104 26 16 -3 27 -14
31 -29 4 -13 11 -24 16 -24 6 0 10 -7 10 -16 0 -12 -7 -15 -27 -10 -16 3 -23
3 -17 0 6 -2 9 -31 8 -69 l-2 -65 39 0 c21 0 39 4 39 10 0 5 13 7 30 4 19 -4
30 -2 30 5 0 6 7 11 15 11 9 0 18 7 21 15 4 8 10 15 16 15 5 0 16 7 24 15 11
10 21 12 39 5 23 -9 24 -7 31 36 3 25 12 48 19 50 8 3 10 17 6 42 -6 36 -7 37
-46 34 -31 -2 -57 6 -117 37 -42 23 -83 38 -91 35 -8 -3 -17 2 -21 11 -3 10
-11 13 -18 8 -20 -12 -46 -14 -53 -3 -4 7 -13 6 -26 -1 -12 -6 -23 -8 -26 -5
-4 3 -12 1 -20 -5 -10 -9 -17 -8 -28 1 -9 7 -18 10 -22 7 -3 -4 -12 -2 -20 4
-10 9 -13 8 -13 -4z m-43 -33 c-3 -3 -12 -4 -19 -1 -8 3 -5 6 6 6 11 1 17 -2
13 -5z"/>
<path d="M3480 1320 c0 -5 5 -10 11 -10 5 0 7 5 4 10 -3 6 -8 10 -11 10 -2 0
-4 -4 -4 -10z"/>
<path d="M2218 1287 c-37 -7 -70 -15 -74 -19 -4 -5 -14 -8 -23 -8 -9 0 -36
-14 -61 -30 -68 -45 -105 -55 -152 -39 -45 15 -66 3 -50 -27 6 -11 13 -27 16
-36 8 -28 36 -22 36 7 0 14 5 25 10 25 6 0 10 -4 10 -8 0 -17 46 -60 93 -88
27 -16 61 -36 75 -45 15 -9 44 -19 65 -23 30 -6 37 -4 37 9 0 21 -25 46 -35
37 -5 -4 -5 -1 -1 6 4 6 4 17 1 23 -10 15 -12 110 -3 115 4 3 5 -2 2 -10 -12
-31 14 -15 30 18 21 45 43 63 58 48 17 -17 48 -15 54 3 7 18 47 20 77 3 35
-18 83 -20 97 -3 10 12 9 16 -6 21 -11 3 -30 10 -44 14 -45 16 -144 19 -212 7z"/>
<path d="M2511 1274 c0 -11 3 -14 6 -6 3 7 2 16 -1 19 -3 4 -6 -2 -5 -13z"/>
<path d="M2936 1143 c-4 -5 -16 -8 -27 -8 -21 0 -21 -2 -13 -45 7 -31 24 -42
24 -15 0 8 5 15 12 15 9 0 9 3 0 12 -9 9 -7 14 6 24 9 7 14 15 11 18 -3 3 -9
3 -13 -1z"/>
<path d="M2888 1005 c-10 -13 -18 -27 -18 -32 0 -11 -51 -34 -61 -27 -5 3 -29
-2 -54 -11 -25 -8 -59 -15 -76 -15 -17 0 -28 -4 -25 -9 4 -5 23 -8 44 -6 20 1
43 -2 50 -8 9 -7 20 -7 37 1 14 6 31 9 38 6 8 -3 20 2 27 11 14 16 35 21 25 5
-3 -5 -2 -10 4 -10 5 0 14 8 20 18 9 16 10 16 16 0 4 -10 11 -15 16 -12 5 3 5
13 -1 24 -14 26 -13 35 3 22 10 -8 16 -6 26 9 7 12 9 24 5 27 -4 4 -9 2 -11
-5 -3 -8 -12 -4 -26 12 l-22 25 -17 -25z"/>
<path d="M2358 986 c-27 -20 -21 -36 13 -36 26 0 30 3 27 22 -4 27 -18 31 -40
14z"/>
<path d="M2950 920 c0 -5 5 -10 10 -10 6 0 10 5 10 10 0 6 -4 10 -10 10 -5 0
-10 -4 -10 -10z"/>
<path d="M2958 843 c7 -3 16 -2 19 1 4 3 -2 6 -13 5 -11 0 -14 -3 -6 -6z"/>
<path d="M3845 740 c3 -5 8 -10 11 -10 2 0 4 5 4 10 0 6 -5 10 -11 10 -5 0 -7
-4 -4 -10z"/>
<path d="M4260 740 c0 -5 6 -10 14 -10 8 0 18 5 21 10 3 6 -3 10 -14 10 -12 0
-21 -4 -21 -10z"/>
<path d="M4228 723 c7 -3 16 -2 19 1 4 3 -2 6 -13 5 -11 0 -14 -3 -6 -6z"/>
<path d="M4318 723 c6 -2 18 -2 25 0 6 3 1 5 -13 5 -14 0 -19 -2 -12 -5z"/>
<path d="M4022 700 c0 -14 2 -19 5 -12 2 6 2 18 0 25 -3 6 -5 1 -5 -13z"/>
<path d="M2733 693 c-16 -6 -17 -43 -2 -43 5 0 7 5 3 12 -5 8 0 9 14 6 17 -5
22 -2 22 13 0 19 -12 23 -37 12z"/>
<path d="M2680 680 c0 -5 5 -10 11 -10 5 0 7 5 4 10 -3 6 -8 10 -11 10 -2 0
-4 -4 -4 -10z"/>
<path d="M2810 676 c0 -8 5 -18 10 -21 6 -3 10 3 10 14 0 12 -4 21 -10 21 -5
0 -10 -6 -10 -14z"/>
<path d="M4851 644 c0 -11 3 -14 6 -6 3 7 2 16 -1 19 -3 4 -6 -2 -5 -13z"/>
<path d="M2690 639 c0 -5 5 -7 10 -4 6 3 10 8 10 11 0 2 -4 4 -10 4 -5 0 -10
-5 -10 -11z"/>
<path d="M2746 633 c-6 -14 -5 -15 5 -6 7 7 10 15 7 18 -3 3 -9 -2 -12 -12z"/>
<path d="M4932 588 c-18 -18 -15 -27 7 -21 22 6 37 33 18 33 -7 0 -18 -5 -25
-12z"/>
<path d="M4950 536 c0 -31 6 -34 13 -6 3 11 1 23 -4 26 -5 3 -9 -6 -9 -20z"/>
<path d="M5003 544 c-15 -16 -16 -24 -4 -24 8 0 24 30 19 35 -2 2 -9 -3 -15
-11z"/>
<path d="M4916 502 c-2 -4 -1 -14 5 -22 7 -12 9 -10 9 8 0 23 -5 28 -14 14z"/>
<path d="M4960 481 c0 -6 5 -13 10 -16 6 -3 10 1 10 9 0 9 -4 16 -10 16 -5 0
-10 -4 -10 -9z"/>
<path d="M4993 409 c-1 -10 5 -19 13 -19 17 0 18 14 1 28 -10 8 -13 6 -14 -9z"/>
<path d="M1390 406 c0 -8 5 -18 10 -21 6 -3 10 1 10 9 0 8 -4 18 -10 21 -5 3
-10 -1 -10 -9z"/>
<path d="M1415 375 c-14 -29 -25 -39 -39 -37 -14 3 -17 -1 -12 -14 6 -17 -18
-97 -38 -122 -7 -10 -6 -16 3 -21 10 -7 8 -17 -8 -49 -11 -22 -26 -42 -33 -45
-10 -3 -10 -7 -1 -17 9 -10 18 1 42 50 17 35 31 68 31 72 0 5 11 24 25 42 14
18 25 43 25 55 0 12 7 36 16 52 8 17 14 40 12 52 -3 19 -6 16 -23 -18z"/>
<path d="M1335 300 c-3 -5 -1 -10 4 -10 6 0 11 5 11 10 0 6 -2 10 -4 10 -3 0
-8 -4 -11 -10z"/>
<path d="M3936 284 c-10 -26 -7 -44 8 -44 8 0 17 9 21 20 11 34 -16 57 -29 24z"/>
<path d="M4960 265 c0 -18 5 -25 19 -25 11 0 23 5 26 10 3 6 -1 10 -9 10 -9 0
-16 7 -16 15 0 8 -4 15 -10 15 -5 0 -10 -11 -10 -25z"/>
<path d="M4470 249 c0 -5 5 -7 10 -4 6 3 10 8 10 11 0 2 -4 4 -10 4 -5 0 -10
-5 -10 -11z"/>
<path d="M4140 209 c0 -5 5 -7 10 -4 6 3 10 8 10 11 0 2 -4 4 -10 4 -5 0 -10
-5 -10 -11z"/>
<path d="M5021 204 c0 -11 3 -14 6 -6 3 7 2 16 -1 19 -3 4 -6 -2 -5 -13z"/>
<path d="M3887 176 c20 -27 33 -25 33 5 0 14 -7 19 -25 19 -26 0 -26 0 -8 -24z"/>
<path d="M4530 191 c0 -5 5 -13 10 -16 6 -3 10 -2 10 4 0 5 -4 13 -10 16 -5 3
-10 2 -10 -4z"/>
<path d="M1294 156 c0 -28 3 -33 13 -24 7 6 13 14 13 17 0 4 -6 15 -13 25 -12
16 -13 14 -13 -18z"/>
<path d="M4420 180 c0 -5 7 -10 15 -10 8 0 15 5 15 10 0 6 -7 10 -15 10 -8 0
-15 -4 -15 -10z"/>
<path d="M5025 169 c-4 -6 -5 -13 -2 -16 7 -7 27 6 27 18 0 12 -17 12 -25 -2z"/>
<path d="M4460 160 c0 -5 7 -7 15 -4 8 4 15 8 15 10 0 2 -7 4 -15 4 -8 0 -15
-4 -15 -10z"/>
<path d="M3900 120 c0 -19 3 -21 12 -12 9 9 9 15 0 24 -9 9 -12 7 -12 -12z"/>
<path d="M3930 116 c0 -10 9 -16 21 -16 24 0 21 23 -4 28 -10 2 -17 -3 -17
-12z"/>
<path d="M4525 120 c3 -5 8 -10 11 -10 2 0 4 5 4 10 0 6 -5 10 -11 10 -5 0 -7
-4 -4 -10z"/>
<path d="M4400 110 c0 -10 28 -18 68 -18 23 -1 30 12 12 23 -6 4 -18 1 -26 -6
-11 -9 -18 -9 -26 -1 -15 15 -28 15 -28 2z"/>
<path d="M4660 86 c0 -9 -7 -16 -15 -16 -10 0 -15 -11 -15 -35 0 -31 3 -35 25
-35 23 0 25 4 25 44 0 25 -4 48 -10 51 -5 3 -10 -1 -10 -9z"/>
<path d="M4520 79 c0 -5 5 -7 10 -4 6 3 10 8 10 11 0 2 -4 4 -10 4 -5 0 -10
-5 -10 -11z"/>
<path d="M4980 80 c0 -5 5 -10 10 -10 6 0 10 5 10 10 0 6 -4 10 -10 10 -5 0
-10 -4 -10 -10z"/>
<path d="M4995 10 c-3 -5 -1 -10 4 -10 6 0 11 5 11 10 0 6 -2 10 -4 10 -3 0
-8 -4 -11 -10z"/>
</g>
</svg>
